<svg version="1.1" id="Layer_1" xmlns="http://www.w3.org/2000/svg" xmlns:xlink="http://www.w3.org/1999/xlink" x="0px" y="0px"
	 width="100%" viewBox="0 0 424 403" enable-background="new 0 0 424 403" xml:space="preserve">
<path fill="#000000" opacity="1.000000" stroke="none" 
	d="
M257.000000,404.000000 
	C171.333328,404.000000 86.166664,404.000000 1.000000,404.000000 
	C1.000000,269.666656 1.000000,135.333328 1.000000,1.000000 
	C142.333328,1.000000 283.666656,1.000000 425.000000,1.000000 
	C425.000000,135.333328 425.000000,269.666656 425.000000,404.000000 
	C369.166656,404.000000 313.333344,404.000000 257.000000,404.000000 
M210.000031,300.500000 
	C210.000031,321.915985 210.000031,343.331940 210.000031,365.000000 
	C199.572052,365.000000 189.919556,364.999969 180.267075,365.000000 
	C169.934555,365.000000 159.602020,364.999786 149.269501,365.000427 
	C148.269592,365.000488 147.248901,364.877075 146.273773,365.034088 
	C143.615417,365.462097 140.981567,365.892914 140.980179,369.588287 
	C140.978668,373.580322 143.779175,372.991730 146.223740,372.992249 
	C191.720184,373.002289 237.216629,372.999634 282.713074,372.999268 
	C283.379669,372.999268 284.060883,373.082489 284.710297,372.975464 
	C287.377960,372.535767 289.999664,372.114044 290.018524,368.429230 
	C290.038940,364.442474 287.248779,365.007996 284.793640,365.006653 
	C264.461884,364.995483 244.130142,365.000153 223.798401,365.000000 
	C222.300507,365.000000 220.802597,365.000000 219.304703,365.000000 
	C223.721069,364.844360 224.062912,362.239624 224.053345,358.739410 
	C223.963135,325.742218 223.978973,292.744659 224.055298,259.747406 
	C224.059586,257.890808 224.351517,255.653717 225.395981,254.256134 
	C227.954849,250.832123 230.968063,247.734970 233.912933,244.614334 
	C245.978775,231.828278 258.089844,219.084915 270.179657,206.321487 
	C282.040314,193.799927 293.888702,181.266708 305.754791,168.750320 
	C318.193939,155.629440 330.646027,142.520828 343.095673,129.409927 
	C355.774872,116.057350 368.530609,102.776329 381.099152,89.320435 
	C385.378174,84.739319 389.190277,79.722107 393.698578,74.326256 
	C370.161987,74.326256 347.770355,74.326256 325.411499,74.326256 
	C325.411499,79.043076 325.411499,83.420334 325.411499,88.097641 
	C338.589203,88.097641 351.358795,88.097641 364.463104,88.097641 
	C364.118408,88.898506 364.033691,89.389351 363.752472,89.705399 
	C358.044342,96.120880 352.412994,102.608650 346.568024,108.897644 
	C331.904449,124.675140 317.135620,140.354782 302.421906,156.085709 
	C293.143677,166.005386 283.935699,175.991196 274.611755,185.867599 
	C261.857208,199.377853 249.017975,212.808167 236.229431,226.286407 
	C235.096985,227.479935 234.109238,228.810013 232.988495,230.015488 
	C226.840805,236.628189 220.672623,243.221817 214.508926,249.824707 
	C167.160660,195.336929 120.023193,141.091766 72.007683,85.836151 
	C132.524429,85.836151 191.583832,85.836151 250.578125,85.836151 
	C250.578125,80.939270 250.578125,76.558563 250.578125,72.442108 
	C180.998810,72.442108 111.841949,72.442108 42.771633,72.442108 
	C49.013165,79.644516 54.994259,86.700500 61.143791,93.606499 
	C70.374321,103.972504 79.808907,114.157372 89.001419,124.556541 
	C103.089584,140.493988 116.989410,156.597916 131.077744,172.535217 
	C140.270340,182.934265 149.719406,193.106323 158.939377,203.481552 
	C174.063782,220.500992 189.072495,237.623199 204.182144,254.655807 
	C207.971436,258.927338 210.588165,263.213837 210.174210,269.513794 
	C209.520004,279.470001 210.000031,289.500793 210.000031,300.500000 
M329.878967,42.404537 
	C331.041962,41.761288 332.594788,41.389637 333.276550,40.411106 
	C334.297211,38.946167 335.704620,36.503460 335.137360,35.475506 
	C334.313293,33.982189 331.705597,32.308659 330.153870,32.557037 
	C308.837982,35.968964 293.151215,47.143036 285.143555,67.494507 
	C281.636963,76.406387 279.707489,85.931068 276.827515,95.103897 
	C276.263092,96.901619 274.944519,99.307190 273.424133,99.828049 
	C259.837311,104.482704 251.574921,119.204262 255.297836,132.739853 
	C258.039185,142.706650 267.574371,151.087631 277.226288,151.990616 
	C291.925232,153.365784 300.539978,148.218735 305.695648,137.244507 
	C312.235016,123.324905 306.900726,106.250015 290.700684,99.935951 
	C289.261749,99.375122 287.100372,97.445732 287.261200,96.484352 
	C289.788971,81.376129 294.013458,66.472191 305.489929,55.902035 
	C311.952545,49.949787 321.229034,47.052689 329.878967,42.404537 
z"/>
<path fill="#48B07B" opacity="1.000000" stroke="none" 
	d="
M210.000031,300.000000 
	C210.000031,289.500793 209.520004,279.470001 210.174210,269.513794 
	C210.588165,263.213837 207.971436,258.927338 204.182144,254.655807 
	C189.072495,237.623199 174.063782,220.500992 158.939377,203.481552 
	C149.719406,193.106323 140.270340,182.934265 131.077744,172.535217 
	C116.989410,156.597916 103.089584,140.493988 89.001419,124.556541 
	C79.808907,114.157372 70.374321,103.972504 61.143791,93.606499 
	C54.994259,86.700500 49.013165,79.644516 42.771633,72.442108 
	C111.841949,72.442108 180.998810,72.442108 250.578125,72.442108 
	C250.578125,76.558563 250.578125,80.939270 250.578125,85.836151 
	C191.583832,85.836151 132.524429,85.836151 72.007683,85.836151 
	C120.023193,141.091766 167.160660,195.336929 214.508926,249.824707 
	C220.672623,243.221817 226.840805,236.628189 232.988495,230.015488 
	C234.109238,228.810013 235.096985,227.479935 236.229431,226.286407 
	C249.017975,212.808167 261.857208,199.377853 274.611755,185.867599 
	C283.935699,175.991196 293.143677,166.005386 302.421906,156.085709 
	C317.135620,140.354782 331.904449,124.675140 346.568024,108.897644 
	C352.412994,102.608650 358.044342,96.120880 363.752472,89.705399 
	C364.033691,89.389351 364.118408,88.898506 364.463104,88.097641 
	C351.358795,88.097641 338.589203,88.097641 325.411499,88.097641 
	C325.411499,83.420334 325.411499,79.043076 325.411499,74.326256 
	C347.770355,74.326256 370.161987,74.326256 393.698578,74.326256 
	C389.190277,79.722107 385.378174,84.739319 381.099152,89.320435 
	C368.530609,102.776329 355.774872,116.057350 343.095673,129.409927 
	C330.646027,142.520828 318.193939,155.629440 305.754791,168.750320 
	C293.888702,181.266708 282.040314,193.799927 270.179657,206.321487 
	C258.089844,219.084915 245.978775,231.828278 233.912933,244.614334 
	C230.968063,247.734970 227.954849,250.832123 225.395981,254.256134 
	C224.351517,255.653717 224.059586,257.890808 224.055298,259.747406 
	C223.978973,292.744659 223.963135,325.742218 224.053345,358.739410 
	C224.062912,362.239624 223.721069,364.844360 219.304703,365.000000 
	C220.802597,365.000000 222.300507,365.000000 223.798401,365.000000 
	C244.130142,365.000153 264.461884,364.995483 284.793640,365.006653 
	C287.248779,365.007996 290.038940,364.442474 290.018524,368.429230 
	C289.999664,372.114044 287.377960,372.535767 284.710297,372.975464 
	C284.060883,373.082489 283.379669,372.999268 282.713074,372.999268 
	C237.216629,372.999634 191.720184,373.002289 146.223740,372.992249 
	C143.779175,372.991730 140.978668,373.580322 140.980179,369.588287 
	C140.981567,365.892914 143.615417,365.462097 146.273773,365.034088 
	C147.248901,364.877075 148.269592,365.000488 149.269501,365.000427 
	C159.602020,364.999786 169.934555,365.000000 180.267075,365.000000 
	C189.919556,364.999969 199.572052,365.000000 210.000031,365.000000 
	C210.000031,343.331940 210.000031,321.915985 210.000031,300.000000 
z"/>
<path fill="#48AF7A" opacity="1.000000" stroke="none" 
	d="
M329.558411,42.591908 
	C321.229034,47.052689 311.952545,49.949787 305.489929,55.902035 
	C294.013458,66.472191 289.788971,81.376129 287.261200,96.484352 
	C287.100372,97.445732 289.261749,99.375122 290.700684,99.935951 
	C306.900726,106.250015 312.235016,123.324905 305.695648,137.244507 
	C300.539978,148.218735 291.925232,153.365784 277.226288,151.990616 
	C267.574371,151.087631 258.039185,142.706650 255.297836,132.739853 
	C251.574921,119.204262 259.837311,104.482704 273.424133,99.828049 
	C274.944519,99.307190 276.263092,96.901619 276.827515,95.103897 
	C279.707489,85.931068 281.636963,76.406387 285.143555,67.494507 
	C293.151215,47.143036 308.837982,35.968964 330.153870,32.557037 
	C331.705597,32.308659 334.313293,33.982189 335.137360,35.475506 
	C335.704620,36.503460 334.297211,38.946167 333.276550,40.411106 
	C332.594788,41.389637 331.041962,41.761288 329.558411,42.591908 
z"/>
</svg>